<svg width="42" height="26" viewBox="0 0 42 26" fill="none" xmlns="http://www.w3.org/2000/svg">
<path d="M11.8357 9.33913C11.8357 9.85597 11.8916 10.275 11.9894 10.5823C12.1011 10.8897 12.2408 11.2249 12.4364 11.5881C12.5062 11.6998 12.5342 11.8116 12.5342 11.9094C12.5342 12.0491 12.4504 12.1888 12.2688 12.3284L11.3887 12.9151C11.263 12.9989 11.1373 13.0408 11.0256 13.0408C10.8859 13.0408 10.7462 12.971 10.6065 12.8453C10.4109 12.6358 10.2433 12.4123 10.1036 12.1888C9.96393 11.9513 9.82424 11.6859 9.67058 11.3646C8.58102 12.6497 7.21208 13.2923 5.56377 13.2923C4.39039 13.2923 3.45449 12.957 2.77002 12.2865C2.08555 11.616 1.73633 10.722 1.73633 9.60454C1.73633 8.41719 2.15539 7.45335 3.00749 6.72697C3.85958 6.0006 4.99105 5.63741 6.42983 5.63741C6.90477 5.63741 7.39367 5.67931 7.91052 5.74916C8.42736 5.819 8.95818 5.93075 9.51693 6.05647V5.03675C9.51693 3.97513 9.29343 3.23478 8.86039 2.80175C8.41339 2.36872 7.65908 2.15919 6.58349 2.15919C6.09458 2.15919 5.5917 2.21506 5.07486 2.34078C4.55802 2.4665 4.05514 2.62016 3.56624 2.81572C3.34274 2.9135 3.17511 2.96937 3.07733 2.99731C2.97955 3.02525 2.9097 3.03922 2.85383 3.03922C2.65827 3.03922 2.56048 2.89953 2.56048 2.60619V1.92172C2.56048 1.69822 2.58842 1.53059 2.65827 1.43281C2.72811 1.33503 2.85383 1.23725 3.04939 1.13947C3.5383 0.88803 4.12499 0.678498 4.80945 0.510873C5.49392 0.329279 6.2203 0.245467 6.98858 0.245467C8.65086 0.245467 9.86615 0.622623 10.6484 1.37694C11.4167 2.13125 11.8078 3.27669 11.8078 4.81325V9.33913H11.8357ZM6.16442 11.4624C6.62539 11.4624 7.10033 11.3786 7.60321 11.2109C8.10608 11.0433 8.55308 10.736 8.93024 10.3169C9.15374 10.0515 9.32136 9.75819 9.40518 9.42294C9.48899 9.08769 9.54486 8.6826 9.54486 8.20766V7.62097C9.13977 7.52319 8.70674 7.43938 8.25974 7.3835C7.81274 7.32763 7.37971 7.29969 6.94667 7.29969C6.01077 7.29969 5.3263 7.48128 4.86533 7.85844C4.40436 8.2356 4.18086 8.76641 4.18086 9.46485C4.18086 10.1214 4.34849 10.6103 4.6977 10.9455C5.03295 11.2948 5.52186 11.4624 6.16442 11.4624ZM17.3813 12.971C17.1299 12.971 16.9623 12.9291 16.8505 12.8313C16.7388 12.7475 16.641 12.5519 16.5572 12.2865L13.2745 1.48869C13.1907 1.20931 13.1488 1.02772 13.1488 0.929936C13.1488 0.706436 13.2606 0.580717 13.4841 0.580717H14.853C15.1184 0.580717 15.3 0.622623 15.3978 0.720405C15.5095 0.804217 15.5933 0.99978 15.6771 1.26519L18.0239 10.5125L20.203 1.26519C20.2729 0.985811 20.3567 0.804217 20.4684 0.720405C20.5802 0.636592 20.7757 0.580717 21.0272 0.580717H22.1447C22.4101 0.580717 22.5917 0.622623 22.7034 0.720405C22.8152 0.804217 22.913 0.99978 22.9688 1.26519L25.1759 10.6243L27.5925 1.26519C27.6763 0.985811 27.7741 0.804217 27.8719 0.720405C27.9836 0.636592 28.1652 0.580717 28.4167 0.580717H29.7157C29.9392 0.580717 30.065 0.692467 30.065 0.929936C30.065 0.99978 30.051 1.06962 30.037 1.15344C30.0231 1.23725 29.9951 1.349 29.9392 1.50266L26.5728 12.3005C26.489 12.5799 26.3912 12.7615 26.2794 12.8453C26.1677 12.9291 25.9861 12.985 25.7486 12.985H24.5473C24.2819 12.985 24.1003 12.9431 23.9886 12.8453C23.8768 12.7475 23.779 12.5659 23.7232 12.2865L21.558 3.27669L19.4068 12.2726C19.337 12.5519 19.2531 12.7335 19.1414 12.8313C19.0296 12.9291 18.8341 12.971 18.5826 12.971H17.3813ZM35.3312 13.3482C34.6048 13.3482 33.8784 13.2644 33.18 13.0967C32.4816 12.9291 31.9368 12.7475 31.5736 12.538C31.3501 12.4123 31.1964 12.2726 31.1406 12.1468C31.0847 12.0211 31.0567 11.8814 31.0567 11.7557V11.0433C31.0567 10.75 31.1685 10.6103 31.378 10.6103C31.4618 10.6103 31.5457 10.6243 31.6295 10.6522C31.7133 10.6801 31.839 10.736 31.9787 10.7919C32.4536 11.0014 32.9705 11.169 33.5152 11.2808C34.074 11.3925 34.6188 11.4484 35.1775 11.4484C36.0576 11.4484 36.742 11.2948 37.217 10.9874C37.6919 10.6801 37.9433 10.2331 37.9433 9.66041C37.9433 9.26928 37.8176 8.948 37.5662 8.6826C37.3148 8.41719 36.8398 8.17972 36.1553 7.95622L34.1299 7.32763C33.1102 7.00635 32.3558 6.53141 31.8949 5.90281C31.4339 5.28819 31.1964 4.60372 31.1964 3.87734C31.1964 3.29066 31.3222 2.77381 31.5736 2.32681C31.825 1.87981 32.1603 1.48869 32.5793 1.18137C32.9984 0.860092 33.4733 0.622623 34.0321 0.454998C34.5908 0.287373 35.1775 0.217529 35.7922 0.217529C36.0995 0.217529 36.4208 0.231498 36.7281 0.273404C37.0493 0.315311 37.3427 0.371186 37.636 0.427061C37.9154 0.496904 38.1808 0.566748 38.4322 0.650561C38.6837 0.734373 38.8793 0.818186 39.0189 0.901998C39.2145 1.01375 39.3542 1.1255 39.438 1.25122C39.5218 1.36297 39.5637 1.51662 39.5637 1.71219V2.36872C39.5637 2.66206 39.452 2.81572 39.2424 2.81572C39.1307 2.81572 38.9491 2.75984 38.7116 2.64809C37.9154 2.28491 37.0214 2.10331 36.0296 2.10331C35.2334 2.10331 34.6048 2.22903 34.1718 2.49444C33.7387 2.75984 33.5152 3.16494 33.5152 3.73766C33.5152 4.12878 33.6549 4.46403 33.9343 4.72944C34.2137 4.99485 34.7305 5.26025 35.4709 5.49772L37.4544 6.12631C38.4602 6.4476 39.1866 6.8946 39.6196 7.46732C40.0526 8.04003 40.2622 8.69657 40.2622 9.42294C40.2622 10.0236 40.1364 10.5684 39.899 11.0433C39.6475 11.5183 39.3123 11.9373 38.8793 12.2726C38.4462 12.6218 37.9294 12.8732 37.3287 13.0548C36.7001 13.2504 36.0436 13.3482 35.3312 13.3482Z" fill="url(#paint0_linear_207_2044)"/>
<path fill-rule="evenodd" clip-rule="evenodd" d="M37.9716 20.1369C33.3758 23.5313 26.6988 25.3332 20.9576 25.3332C12.9116 25.3332 5.66182 22.3579 0.186066 17.4129C-0.246965 17.0218 0.14416 16.491 0.661004 16.7983C6.58376 20.2346 13.8894 22.316 21.4465 22.316C26.5451 22.316 32.1466 21.2544 37.3011 19.0752C38.0693 18.726 38.7259 19.5781 37.9716 20.1369Z" fill="url(#paint1_linear_207_2044)"/>
<path fill-rule="evenodd" clip-rule="evenodd" d="M39.8849 17.9579C39.2982 17.2036 36.0016 17.5947 34.507 17.7763C34.06 17.8322 33.9901 17.4411 34.3952 17.1477C37.0213 15.3039 41.3377 15.8347 41.8406 16.4493C42.3434 17.0779 41.7009 21.3942 39.2424 23.4616C38.8652 23.7829 38.502 23.6153 38.6696 23.1962C39.2284 21.8133 40.4716 18.6983 39.8849 17.9579Z" fill="url(#paint2_linear_207_2044)"/>
<defs>
<linearGradient id="paint0_linear_207_2044" x1="20.9992" y1="0.217529" x2="20.9992" y2="13.3482" gradientUnits="userSpaceOnUse">
<stop stop-color="#E17139"/>
<stop offset="1" stop-color="#CD4B3A"/>
</linearGradient>
<linearGradient id="paint1_linear_207_2044" x1="0" y1="21.0199" x2="38.305" y2="21.0199" gradientUnits="userSpaceOnUse">
<stop stop-color="#E17139"/>
<stop offset="1" stop-color="#CD4B3A"/>
</linearGradient>
<linearGradient id="paint2_linear_207_2044" x1="34.1279" y1="19.7525" x2="41.9996" y2="19.7525" gradientUnits="userSpaceOnUse">
<stop stop-color="#E17139"/>
<stop offset="1" stop-color="#CD4B3A"/>
</linearGradient>
</defs>
</svg>
