<svg width="25" height="25" viewBox="0 0 25 25" fill="none" xmlns="http://www.w3.org/2000/svg">
<g clip-path="url(#clip0_205_2019)">
<path d="M165.75 9.53703H169.113V10.2844C169.524 9.97511 169.983 9.73656 170.472 9.57863C170.985 9.41147 171.521 9.32741 172.06 9.32964C173.348 9.32964 174.4 9.74471 175.216 10.5751C176.032 11.4056 176.441 12.4643 176.441 13.7515V20.5194H173.078V14.2083C173.094 13.9426 173.052 13.6767 172.958 13.428C172.862 13.1793 172.716 12.9535 172.528 12.7654C172.34 12.577 172.115 12.4307 171.866 12.3361C171.617 12.2413 171.351 12.2001 171.086 12.2153C170.693 12.2078 170.302 12.2857 169.944 12.4435C169.62 12.5891 169.335 12.8097 169.113 13.0872V20.5194H165.75V9.53703ZM179.577 12.3398V17.1768C179.576 18.3257 179.912 19.1943 180.583 19.7823C181.254 20.3706 182.247 20.6646 183.562 20.6646C183.958 20.6588 184.354 20.6276 184.746 20.5713C185.139 20.5251 185.529 20.4452 185.908 20.3325V17.6129C185.657 17.6902 185.4 17.7493 185.14 17.7894C184.893 17.8249 184.643 17.8423 184.392 17.8413C183.854 17.8413 183.476 17.741 183.26 17.5402C183.046 17.3398 182.939 16.9972 182.939 16.5126V12.3398H186.012V9.53703H182.939V5.98705L179.577 6.71372V9.53703H177.355V12.3398H179.577ZM11.3226 0.380157C11.098 0.5198 10.8778 0.740057 10.4373 1.18057C9.99688 1.6208 9.77648 1.8412 9.63698 2.06574C9.41054 2.42991 9.29052 2.85018 9.29052 3.27901C9.29052 3.70784 9.41054 4.12812 9.63698 4.49228C9.77648 4.71668 9.99674 4.9368 10.437 5.37717L10.4373 5.37731C10.8778 5.81782 11.098 6.03808 11.3226 6.17773C11.6867 6.40418 12.107 6.52419 12.5358 6.52419C12.9646 6.52419 13.3848 6.40418 13.749 6.17773C13.9735 6.03808 14.1938 5.81797 14.6343 5.37745C15.0748 4.93694 15.2949 4.71668 15.4346 4.49228C15.661 4.12812 15.781 3.70784 15.781 3.27901C15.781 2.85018 15.661 2.42991 15.4346 2.06574C15.2949 1.84134 15.0748 1.62094 14.6343 1.18043C14.1938 0.739914 13.9735 0.5198 13.749 0.380157C13.3848 0.153707 12.9646 0.0336914 12.5358 0.0336914C12.107 0.0336914 11.6867 0.153707 11.3226 0.380157ZM14.2206 14.1611L19.3461 9.03549C19.7752 8.60683 20.3568 8.36594 20.9633 8.36571C21.5697 8.36581 22.1513 8.60672 22.5802 9.03549L25.1559 11.6111L12.5779 24.189L0 11.6111L2.60277 9.00847C3.03145 8.57993 3.61275 8.33912 4.2189 8.33899C4.51909 8.33899 4.81634 8.39814 5.09367 8.51306C5.37099 8.62798 5.62296 8.79642 5.83516 9.00876L10.9877 14.1613C11.4165 14.5899 11.998 14.8307 12.6042 14.8308C12.9044 14.8308 13.2017 14.7717 13.4791 14.6568C13.7564 14.5419 14.0084 14.3735 14.2206 14.1611Z" fill="url(#paint0_linear_205_2019)"/>
</g>
<defs>
<linearGradient id="paint0_linear_205_2019" x1="93.006" y1="0.0336914" x2="93.006" y2="24.189" gradientUnits="userSpaceOnUse">
<stop stop-color="#E17139"/>
<stop offset="1" stop-color="#CD4B3A"/>
</linearGradient>
<clipPath id="clip0_205_2019">
<rect width="25" height="25" fill="white"/>
</clipPath>
</defs>
</svg>
